<svg width="41" height="29" viewBox="0 0 41 29" fill="none" xmlns="http://www.w3.org/2000/svg">
<path d="M16.5834 20.3751L26.7472 14.5001L16.5834 8.62508V20.3751ZM39.2217 5.04133C39.4763 5.96175 39.6526 7.1955 39.7701 8.76216C39.9072 10.3288 39.9659 11.6801 39.9659 12.8551L40.0834 14.5001C40.0834 18.7888 39.7701 21.9417 39.2217 23.9588C38.7322 25.7213 37.5963 26.8572 35.8338 27.3467C34.9134 27.6013 33.2292 27.7776 30.6442 27.8951C28.0984 28.0322 25.768 28.0909 23.6138 28.0909L20.5001 28.2084C12.2947 28.2084 7.18341 27.8951 5.16633 27.3467C3.40383 26.8572 2.268 25.7213 1.77841 23.9588C1.52383 23.0384 1.34758 21.8047 1.23008 20.238C1.093 18.6713 1.03425 17.3201 1.03425 16.1451L0.916748 14.5001C0.916748 10.2113 1.23008 7.05841 1.77841 5.04133C2.268 3.27883 3.40383 2.143 5.16633 1.65341C6.08675 1.39883 7.77092 1.22258 10.3559 1.10508C12.9017 0.967998 15.2322 0.909248 17.3863 0.909248L20.5001 0.791748C28.7055 0.791748 33.8167 1.10508 35.8338 1.65341C37.5963 2.143 38.7322 3.27883 39.2217 5.04133Z" />
</svg>
