<svg width="37" height="37" viewBox="0 0 37 37" fill="none" xmlns="http://www.w3.org/2000/svg">
<path d="M32.2083 0.875C33.2471 0.875 34.2433 1.28765 34.9778 2.02216C35.7124 2.75668 36.125 3.7529 36.125 4.79167V32.2083C36.125 33.2471 35.7124 34.2433 34.9778 34.9778C34.2433 35.7124 33.2471 36.125 32.2083 36.125H4.79167C3.7529 36.125 2.75668 35.7124 2.02216 34.9778C1.28765 34.2433 0.875 33.2471 0.875 32.2083V4.79167C0.875 3.7529 1.28765 2.75668 2.02216 2.02216C2.75668 1.28765 3.7529 0.875 4.79167 0.875H32.2083ZM31.2292 31.2292V20.85C31.2292 19.1568 30.5566 17.533 29.3593 16.3357C28.162 15.1384 26.5382 14.4658 24.845 14.4658C23.1804 14.4658 21.2417 15.4842 20.3017 17.0117V14.8379H14.8379V31.2292H20.3017V21.5746C20.3017 20.0667 21.5158 18.8329 23.0238 18.8329C23.7509 18.8329 24.4482 19.1218 24.9624 19.6359C25.4766 20.1501 25.7654 20.8474 25.7654 21.5746V31.2292H31.2292ZM8.47333 11.7633C9.3459 11.7633 10.1827 11.4167 10.7997 10.7997C11.4167 10.1827 11.7633 9.3459 11.7633 8.47333C11.7633 6.65208 10.2946 5.16375 8.47333 5.16375C7.59558 5.16375 6.75377 5.51244 6.1331 6.1331C5.51244 6.75377 5.16375 7.59558 5.16375 8.47333C5.16375 10.2946 6.65208 11.7633 8.47333 11.7633ZM11.1954 31.2292V14.8379H5.77083V31.2292H11.1954Z"/>
</svg>
