<svg xmlns="http://www.w3.org/2000/svg" xmlns:xlink="http://www.w3.org/1999/xlink">
  <defs>
    <symbol viewBox="0 0 51 41" id="icon-chat">
     <path d="M50.5 30.6125H42.931L41.3039 40.1429L36.0474 30.6125H16.125V25.1628H36.5991V8.05077H50.5V30.6125ZM34.875 0.857178V23.4189H14.9537L9.69612 32.9526L8.06789 23.4189H0.5V0.857178H34.875ZM12.647 16.0666C12.647 14.9615 11.3262 14.4084 10.5538 15.1896C9.78136 15.9709 10.3282 17.307 11.4208 17.307C12.0981 17.307 12.647 16.7516 12.647 16.0666ZM19.2143 16.0666C19.207 14.9636 17.8867 14.4184 17.1182 15.2009C16.3498 15.9834 16.8976 17.3152 17.9881 17.3152C18.6685 17.3152 19.2189 16.7549 19.2143 16.0666ZM25.7817 16.0666C25.7817 14.9615 24.4609 14.4084 23.6885 15.1896C22.9159 15.9709 23.4629 17.307 24.5555 17.307C25.2327 17.307 25.7817 16.7516 25.7817 16.0666Z" fill="#E67027"/>
    </symbol>
    <symbol viewBox="0 0 50 51" id="icon-computer">
     <path d="M2.08325 44.25V40.0833H47.9166V44.25H2.08325ZM4.16659 38V6.75H45.8333V38H4.16659Z" fill="#E67027"/>
    </symbol>
    <symbol viewBox="0 0 50 51" id="icon-pay">
      <path d="M29.1894 2.87402C27.7343 2.90332 26.6894 3.18652 25.9961 3.69434L16.4941 8.78223L11.2109 15.9688C10.0976 17.6875 10.8886 21.0078 14.3652 18.8789L18.1738 13.8594C23.0078 9.69043 32.8711 11.6035 28.1933 19.9727C25.8984 24.8164 26.9726 27.1797 29.9316 28.1758L31.2793 23.6445C33.6133 18.3906 37.9687 17.4434 37.7929 13.2051L48.2617 13.957L48.164 3.01074L29.1894 2.87402ZM23.9062 12.9707C22.207 12.9414 20.5371 13.6445 19.3261 14.6602L15.5078 19.6797C16.5527 20.5098 17.6074 20.0605 18.6523 19.0547C19.8828 19.6797 20.8398 18.7129 21.6211 16.7793C21.9433 15.4609 22.4218 14.5332 23.9062 12.9707ZM16.1328 22.3457C16.0937 22.3457 16.0449 22.3457 16.0058 22.3555C15.6836 22.4238 15.3027 22.7656 15.0488 23.5469C14.7851 24.3281 14.7265 25.4414 14.9609 26.6328C15.1953 27.8145 15.6836 28.8203 16.2304 29.4453C16.7578 30.0605 17.2461 30.2363 17.5683 30.168C17.9004 30.1094 18.2715 29.7578 18.5254 28.9863C18.789 28.2051 18.8574 27.082 18.623 25.9004C18.3789 24.709 17.8906 23.7031 17.3535 23.0879C16.8847 22.541 16.4551 22.3457 16.1328 22.3457ZM24.1992 32.7754C23.4277 32.7852 22.4609 33.0293 21.5136 33.4883C20.4297 34.0254 19.5801 34.7676 19.1211 35.4512C18.6621 36.125 18.623 36.6328 18.7695 36.9356C18.916 37.2285 19.3457 37.5117 20.166 37.5508C20.9863 37.5996 22.0898 37.375 23.1738 36.8379C24.2578 36.3008 25.1074 35.5684 25.5664 34.8848C26.0254 34.2109 26.0644 33.6934 25.9179 33.4004C25.7715 33.0977 25.3418 32.8242 24.5215 32.7852C24.414 32.7754 24.3164 32.7754 24.1992 32.7754ZM14.6679 42.1113C14.209 42.1211 13.789 42.1895 13.4179 42.2969C12.5879 42.541 12.1093 42.9805 11.9531 43.4981C11.7871 44.0254 11.9531 44.6504 12.5097 45.3242C13.0761 45.9883 14.0234 46.6231 15.1953 46.9746C16.3574 47.3262 17.4902 47.3164 18.3301 47.0625C19.1699 46.8184 19.6484 46.3789 19.8047 45.8613C19.9609 45.334 19.8047 44.709 19.2383 44.0352C18.6816 43.3711 17.7343 42.7363 16.5625 42.3848C15.8984 42.1895 15.2539 42.1016 14.6679 42.1113Z" fill="#E67027"/>
    </symbol>
    <symbol viewBox="0 0 41 29" id="icon-youtube">
      <path d="M16.5834 20.3751L26.7472 14.5001L16.5834 8.62508V20.3751ZM39.2217 5.04133C39.4763 5.96175 39.6526 7.1955 39.7701 8.76216C39.9072 10.3288 39.9659 11.6801 39.9659 12.8551L40.0834 14.5001C40.0834 18.7888 39.7701 21.9417 39.2217 23.9588C38.7322 25.7213 37.5963 26.8572 35.8338 27.3467C34.9134 27.6013 33.2292 27.7776 30.6442 27.8951C28.0984 28.0322 25.768 28.0909 23.6138 28.0909L20.5001 28.2084C12.2947 28.2084 7.18341 27.8951 5.16633 27.3467C3.40383 26.8572 2.268 25.7213 1.77841 23.9588C1.52383 23.0384 1.34758 21.8047 1.23008 20.238C1.093 18.6713 1.03425 17.3201 1.03425 16.1451L0.916748 14.5001C0.916748 10.2113 1.23008 7.05841 1.77841 5.04133C2.268 3.27883 3.40383 2.143 5.16633 1.65341C6.08675 1.39883 7.77092 1.22258 10.3559 1.10508C12.9017 0.967998 15.2322 0.909248 17.3863 0.909248L20.5001 0.791748C28.7055 0.791748 33.8167 1.10508 35.8338 1.65341C37.5963 2.143 38.7322 3.27883 39.2217 5.04133Z" />
    </symbol>
    <symbol viewBox="0 0 37 37" id="icon-linkedin">
    <path d="M32.2083 0.875C33.2471 0.875 34.2433 1.28765 34.9778 2.02216C35.7124 2.75668 36.125 3.7529 36.125 4.79167V32.2083C36.125 33.2471 35.7124 34.2433 34.9778 34.9778C34.2433 35.7124 33.2471 36.125 32.2083 36.125H4.79167C3.7529 36.125 2.75668 35.7124 2.02216 34.9778C1.28765 34.2433 0.875 33.2471 0.875 32.2083V4.79167C0.875 3.7529 1.28765 2.75668 2.02216 2.02216C2.75668 1.28765 3.7529 0.875 4.79167 0.875H32.2083ZM31.2292 31.2292V20.85C31.2292 19.1568 30.5566 17.533 29.3593 16.3357C28.162 15.1384 26.5382 14.4658 24.845 14.4658C23.1804 14.4658 21.2417 15.4842 20.3017 17.0117V14.8379H14.8379V31.2292H20.3017V21.5746C20.3017 20.0667 21.5158 18.8329 23.0238 18.8329C23.7509 18.8329 24.4482 19.1218 24.9624 19.6359C25.4766 20.1501 25.7654 20.8474 25.7654 21.5746V31.2292H31.2292ZM8.47333 11.7633C9.3459 11.7633 10.1827 11.4167 10.7997 10.7997C11.4167 10.1827 11.7633 9.3459 11.7633 8.47333C11.7633 6.65208 10.2946 5.16375 8.47333 5.16375C7.59558 5.16375 6.75377 5.51244 6.1331 6.1331C5.51244 6.75377 5.16375 7.59558 5.16375 8.47333C5.16375 10.2946 6.65208 11.7633 8.47333 11.7633ZM11.1954 31.2292V14.8379H5.77083V31.2292H11.1954Z"/>
    </symbol>
    <symbol viewBox="0 0 40 40" id="icon-facebook">
      <path d="M39.1666 20.5001C39.1666 9.69008 30.5799 0.916748 19.9999 0.916748C9.41992 0.916748 0.833252 9.69008 0.833252 20.5001C0.833252 29.9784 7.42659 37.8705 16.1666 39.6917V26.3751H12.3333V20.5001H16.1666V15.6042C16.1666 11.8247 19.1758 8.75008 22.8749 8.75008H27.6666V14.6251H23.8333C22.7791 14.6251 21.9166 15.5063 21.9166 16.5834V20.5001H27.6666V26.3751H21.9166V39.9855C31.5958 39.0063 39.1666 30.6638 39.1666 20.5001Z" />
    </symbol>
  </defs>
</svg>